<svg width="18" height="18" viewBox="0 0 18 18" fill="none" xmlns="http://www.w3.org/2000/svg">
<path d="M2.09228 17.5003C1.48052 17.5003 0.984589 17.0526 0.984589 16.5003V1.50029C0.984589 0.948008 1.48052 0.500268 2.09228 0.500268H9.15935C9.58045 0.497647 9.96679 0.710789 10.1563 1.05029L10.9538 2.50029H16.4923C17.104 2.50029 17.6 2.94801 17.6 3.50029V11.5003C17.6 12.0526 17.104 12.5003 16.4923 12.5003H10.5218C10.1047 12.4992 9.72367 12.2866 9.53597 11.9503L8.73843 10.5003H3.19997V16.5003C3.19997 17.0526 2.70404 17.5003 2.09228 17.5003ZM3.19997 2.50029V8.50029H9.84612L10.9538 10.5003H15.3846V4.50029H9.84612L8.73843 2.50029H3.19997Z" fill="#002247"/>
</svg>
