<svg width="30" height="30" viewBox="0 0 30 30" fill="none" xmlns="http://www.w3.org/2000/svg">
<path d="M14.75 26.5046C13.1712 25.1579 11.7077 23.6815 10.375 22.0909C8.375 19.7021 6 16.1446 6 12.7546C5.99823 9.21407 8.13031 6.02138 11.4013 4.66639C14.6724 3.3114 18.4376 4.06119 20.94 6.56589C22.5856 8.20415 23.5074 10.4326 23.5 12.7546C23.5 16.1446 21.125 19.7021 19.125 22.0909C17.7923 23.6815 16.3288 25.1579 14.75 26.5046ZM14.75 6.50464C11.2999 6.50877 8.50413 9.30457 8.5 12.7546C8.5 14.2121 9.15875 16.7359 12.2938 20.4871C13.0664 21.4097 13.8863 22.2917 14.75 23.1296C15.6138 22.2927 16.4341 21.412 17.2075 20.4909C20.3413 16.7346 21 14.2109 21 12.7546C20.9959 9.30457 18.2001 6.50877 14.75 6.50464ZM14.75 16.5046C12.6789 16.5046 11 14.8257 11 12.7546C11 10.6836 12.6789 9.00464 14.75 9.00464C16.8211 9.00464 18.5 10.6836 18.5 12.7546C18.5 13.7492 18.1049 14.703 17.4017 15.4063C16.6984 16.1096 15.7446 16.5046 14.75 16.5046Z" fill="#F4F8FB"/>
</svg>
