<svg width="21" height="20" viewBox="0 0 21 20" fill="none" xmlns="http://www.w3.org/2000/svg">
<path d="M15.595 19.006H15.567C11.7253 18.9115 8.05925 17.3775 5.29498 14.708C2.6245 11.9463 1.08967 8.28159 0.994862 4.44103C0.989205 3.90303 1.20044 3.38539 1.58098 3.00503L4.29498 0.293031C4.68548 -0.0973513 5.31848 -0.0973513 5.70898 0.293031L9.70898 4.29303C10.0994 4.68353 10.0994 5.31653 9.70898 5.70703L8.11298 7.30003C8.40899 8.40595 8.95425 9.42943 9.70698 10.292C10.568 11.045 11.5902 11.5907 12.695 11.887L14.295 10.293C14.6855 9.90265 15.3185 9.90265 15.709 10.293L19.709 14.293C20.0994 14.6835 20.0994 15.3165 19.709 15.707L16.995 18.42C16.6249 18.7939 16.121 19.0048 15.595 19.006ZM4.99998 2.41503H4.99498L2.99498 4.41903C3.07652 7.73769 4.4013 10.9047 6.70698 13.293C9.09541 15.5979 12.2618 16.9226 15.58 17.005L17.587 15L14.995 12.415L13.702 13.707C13.517 13.8941 13.265 13.9995 13.002 14C12.9317 14.0001 12.8617 13.9927 12.793 13.978C11.1266 13.6094 9.57937 12.8286 8.29298 11.707C7.17143 10.4206 6.39059 8.8734 6.02198 7.20703C5.95244 6.8758 6.05517 6.53187 6.29498 6.29303L7.58698 5.00003L4.99998 2.41503Z" fill="white"/>
</svg>
