<svg width="11" height="13" viewBox="0 0 11 13" fill="none" xmlns="http://www.w3.org/2000/svg">
<path d="M6.5 7.77273H0.590909V6.52273H6.5C7.04545 6.52273 7.49621 6.42803 7.85227 6.23864C8.20833 6.04545 8.47349 5.78409 8.64773 5.45455C8.82197 5.12121 8.90909 4.74242 8.90909 4.31818C8.90909 3.89394 8.82197 3.51705 8.64773 3.1875C8.47349 2.85417 8.20833 2.5928 7.85227 2.40341C7.49621 2.21023 7.04545 2.11364 6.5 2.11364H3.84091V12.5H2.43182V0.863636H6.5C7.36364 0.863636 8.07576 1.02083 8.63636 1.33523C9.19697 1.64962 9.61364 2.06818 9.88636 2.59091C10.1591 3.11364 10.2955 3.68939 10.2955 4.31818C10.2955 4.94697 10.1591 5.52273 9.88636 6.04545C9.61364 6.56818 9.19697 6.98674 8.63636 7.30114C8.07576 7.61553 7.36364 7.77273 6.5 7.77273ZM6.40909 8.86364V10.1136H0.590909V8.86364H6.40909Z" fill="#212529"/>
</svg>
