<svg width="18" height="17" viewBox="0 0 18 17" fill="none" xmlns="http://www.w3.org/2000/svg">
<path d="M15.677 16.6069L9.96201 10.8909C7.41968 12.6984 3.91645 12.2562 1.90288 9.87383C-0.110681 7.49141 0.0371699 3.96349 2.24301 1.7579C4.44827 -0.448656 7.97654 -0.597146 10.3594 1.41631C12.7423 3.42977 13.1846 6.93334 11.377 9.4759L17.092 15.1919L15.678 16.6059L15.677 16.6069ZM6.48501 1.99988C4.58871 1.99946 2.9527 3.33057 2.56749 5.18733C2.18227 7.04409 3.15372 8.91617 4.89369 9.67014C6.63365 10.4241 8.66391 9.85273 9.75525 8.30195C10.8466 6.75117 10.6991 4.64721 9.40201 3.2639L10.007 3.8639L9.32501 3.1839L9.31301 3.1719C8.5648 2.41907 7.54641 1.99702 6.48501 1.99988Z" fill="white"/>
</svg>
