<svg width="140" height="13" viewBox="0 0 140 13" fill="none" xmlns="http://www.w3.org/2000/svg">
<path d="M3.63636 9.95455V2.45455H4.90909V9.95455H3.63636ZM0.522727 6.84091V5.56818H8.02273V6.84091H0.522727ZM15.6151 12L20.8196 1.70455V1.61364H14.8196V0.363636H22.2741V1.68182L17.0923 12H15.6151ZM32.8239 12.1591C32.0739 12.1591 31.4053 12.0303 30.8182 11.7727C30.2348 11.5152 29.7708 11.1572 29.4261 10.6989C29.0852 10.2367 28.8996 9.70076 28.8693 9.09091H30.3011C30.3314 9.46591 30.4602 9.78977 30.6875 10.0625C30.9148 10.3314 31.2121 10.5398 31.5795 10.6875C31.947 10.8352 32.3542 10.9091 32.8011 10.9091C33.3011 10.9091 33.7443 10.822 34.1307 10.6477C34.517 10.4735 34.8201 10.2311 35.0398 9.92045C35.2595 9.60985 35.3693 9.25 35.3693 8.84091C35.3693 8.41288 35.2633 8.03598 35.0511 7.71023C34.839 7.38068 34.5284 7.12311 34.1193 6.9375C33.7102 6.75189 33.2102 6.65909 32.6193 6.65909H31.6875V5.40909H32.6193C33.0814 5.40909 33.4867 5.32576 33.8352 5.15909C34.1875 4.99242 34.4621 4.75758 34.6591 4.45455C34.8598 4.15152 34.9602 3.79545 34.9602 3.38636C34.9602 2.99242 34.8731 2.64962 34.6989 2.35795C34.5246 2.06629 34.2784 1.83901 33.9602 1.67614C33.6458 1.51326 33.2746 1.43182 32.8466 1.43182C32.4451 1.43182 32.0663 1.50568 31.7102 1.65341C31.358 1.79735 31.0701 2.00758 30.8466 2.28409C30.6231 2.55682 30.5019 2.88636 30.483 3.27273H29.1193C29.142 2.66288 29.3258 2.12879 29.6705 1.67045C30.0152 1.20833 30.4659 0.848484 31.0227 0.590909C31.5833 0.333333 32.1989 0.204545 32.8693 0.204545C33.589 0.204545 34.2064 0.350378 34.7216 0.642045C35.2367 0.929924 35.6326 1.31061 35.9091 1.78409C36.1856 2.25758 36.3239 2.76894 36.3239 3.31818C36.3239 3.97348 36.1515 4.5322 35.8068 4.99432C35.4659 5.45644 35.0019 5.77652 34.4148 5.95455V6.04545C35.1496 6.16667 35.7235 6.47917 36.1364 6.98295C36.5492 7.48295 36.7557 8.10227 36.7557 8.84091C36.7557 9.47348 36.5833 10.0417 36.2386 10.5455C35.8977 11.0455 35.4318 11.4394 34.8409 11.7273C34.25 12.0152 33.5777 12.1591 32.8239 12.1591ZM42.8068 12.1591C42.0265 12.1591 41.3371 12.0208 40.7386 11.7443C40.1439 11.464 39.6799 11.0795 39.3466 10.5909C39.0133 10.0985 38.8485 9.53788 38.8523 8.90909C38.8485 8.41667 38.9451 7.96212 39.142 7.54545C39.339 7.125 39.608 6.77462 39.9489 6.49432C40.2936 6.21023 40.678 6.0303 41.1023 5.95455V5.88636C40.5455 5.74242 40.1023 5.42992 39.7727 4.94886C39.4432 4.46401 39.2803 3.91288 39.2841 3.29545C39.2803 2.70455 39.4299 2.17614 39.733 1.71023C40.036 1.24432 40.4527 0.876893 40.983 0.607954C41.517 0.339015 42.125 0.204545 42.8068 0.204545C43.4811 0.204545 44.0833 0.339015 44.6136 0.607954C45.1439 0.876893 45.5606 1.24432 45.8636 1.71023C46.1705 2.17614 46.3258 2.70455 46.3295 3.29545C46.3258 3.91288 46.1572 4.46401 45.8239 4.94886C45.4943 5.42992 45.0568 5.74242 44.5114 5.88636V5.95455C44.9318 6.0303 45.3106 6.21023 45.6477 6.49432C45.9848 6.77462 46.2538 7.125 46.4545 7.54545C46.6553 7.96212 46.7576 8.41667 46.7614 8.90909C46.7576 9.53788 46.5871 10.0985 46.25 10.5909C45.9167 11.0795 45.4527 11.464 44.858 11.7443C44.267 12.0208 43.5833 12.1591 42.8068 12.1591ZM42.8068 10.9091C43.3333 10.9091 43.7879 10.8239 44.1705 10.6534C44.553 10.483 44.8485 10.2424 45.0568 9.93182C45.2652 9.62121 45.3712 9.25758 45.375 8.84091C45.3712 8.40152 45.2576 8.01326 45.0341 7.67614C44.8106 7.33902 44.5057 7.07386 44.1193 6.88068C43.7367 6.6875 43.2992 6.59091 42.8068 6.59091C42.3106 6.59091 41.8674 6.6875 41.4773 6.88068C41.0909 7.07386 40.786 7.33902 40.5625 7.67614C40.3428 8.01326 40.2348 8.40152 40.2386 8.84091C40.2348 9.25758 40.3352 9.62121 40.5398 9.93182C40.7481 10.2424 41.0455 10.483 41.4318 10.6534C41.8182 10.8239 42.2765 10.9091 42.8068 10.9091ZM42.8068 5.38636C43.2235 5.38636 43.5928 5.30303 43.9148 5.13636C44.2405 4.9697 44.4962 4.73674 44.6818 4.4375C44.8674 4.13826 44.9621 3.78788 44.9659 3.38636C44.9621 2.99242 44.8693 2.64962 44.6875 2.35795C44.5057 2.0625 44.2538 1.83523 43.9318 1.67614C43.6098 1.51326 43.2348 1.43182 42.8068 1.43182C42.3712 1.43182 41.9905 1.51326 41.6648 1.67614C41.339 1.83523 41.0871 2.0625 40.9091 2.35795C40.7311 2.64962 40.6439 2.99242 40.6477 3.38636C40.6439 3.78788 40.733 4.13826 40.9148 4.4375C41.1004 4.73674 41.3561 4.9697 41.6818 5.13636C42.0076 5.30303 42.3826 5.38636 42.8068 5.38636ZM52.8707 12.1591C52.1207 12.1591 51.4522 12.0303 50.8651 11.7727C50.2817 11.5152 49.8177 11.1572 49.473 10.6989C49.1321 10.2367 48.9465 9.70076 48.9162 9.09091H50.348C50.3783 9.46591 50.5071 9.78977 50.7344 10.0625C50.9616 10.3314 51.259 10.5398 51.6264 10.6875C51.9938 10.8352 52.401 10.9091 52.848 10.9091C53.348 10.9091 53.7912 10.822 54.1776 10.6477C54.5639 10.4735 54.867 10.2311 55.0866 9.92045C55.3063 9.60985 55.4162 9.25 55.4162 8.84091C55.4162 8.41288 55.3101 8.03598 55.098 7.71023C54.8859 7.38068 54.5753 7.12311 54.1662 6.9375C53.7571 6.75189 53.2571 6.65909 52.6662 6.65909H51.7344V5.40909H52.6662C53.1283 5.40909 53.5336 5.32576 53.8821 5.15909C54.2344 4.99242 54.509 4.75758 54.706 4.45455C54.9067 4.15152 55.0071 3.79545 55.0071 3.38636C55.0071 2.99242 54.92 2.64962 54.7457 2.35795C54.5715 2.06629 54.3253 1.83901 54.0071 1.67614C53.6927 1.51326 53.3215 1.43182 52.8935 1.43182C52.492 1.43182 52.1132 1.50568 51.7571 1.65341C51.4048 1.79735 51.117 2.00758 50.8935 2.28409C50.67 2.55682 50.5488 2.88636 50.5298 3.27273H49.1662C49.1889 2.66288 49.3726 2.12879 49.7173 1.67045C50.062 1.20833 50.5128 0.848484 51.0696 0.590909C51.6302 0.333333 52.2457 0.204545 52.9162 0.204545C53.6359 0.204545 54.2533 0.350378 54.7685 0.642045C55.2836 0.929924 55.6795 1.31061 55.956 1.78409C56.2325 2.25758 56.3707 2.76894 56.3707 3.31818C56.3707 3.97348 56.1984 4.5322 55.8537 4.99432C55.5128 5.45644 55.0488 5.77652 54.4616 5.95455V6.04545C55.1965 6.16667 55.7704 6.47917 56.1832 6.98295C56.5961 7.48295 56.8026 8.10227 56.8026 8.84091C56.8026 9.47348 56.6302 10.0417 56.2855 10.5455C55.9446 11.0455 55.4787 11.4394 54.8878 11.7273C54.2969 12.0152 53.6245 12.1591 52.8707 12.1591ZM63.6264 12V10.9773L67.4673 6.77273C67.9181 6.2803 68.2893 5.85227 68.581 5.48864C68.8726 5.12121 69.0885 4.77652 69.2287 4.45455C69.3726 4.12879 69.4446 3.78788 69.4446 3.43182C69.4446 3.02273 69.3461 2.66856 69.1491 2.36932C68.956 2.07008 68.6908 1.83901 68.3537 1.67614C68.0166 1.51326 67.6378 1.43182 67.2173 1.43182C66.7704 1.43182 66.3802 1.52462 66.0469 1.71023C65.7173 1.89205 65.4616 2.14773 65.2798 2.47727C65.1018 2.80682 65.0128 3.19318 65.0128 3.63636H63.6719C63.6719 2.95455 63.8291 2.35606 64.1435 1.84091C64.4579 1.32576 64.8859 0.924242 65.4276 0.636363C65.973 0.348484 66.5848 0.204545 67.2628 0.204545C67.9446 0.204545 68.5488 0.348484 69.0753 0.636363C69.6018 0.924242 70.0147 1.3125 70.3139 1.80114C70.6132 2.28977 70.7628 2.83333 70.7628 3.43182C70.7628 3.85985 70.6851 4.27841 70.5298 4.6875C70.3783 5.0928 70.1132 5.54545 69.7344 6.04545C69.3594 6.54167 68.8385 7.14773 68.1719 7.86364L65.5582 10.6591V10.75H70.9673V12H63.6264ZM73.3139 12V10.9773L77.1548 6.77273C77.6056 6.2803 77.9768 5.85227 78.2685 5.48864C78.5601 5.12121 78.776 4.77652 78.9162 4.45455C79.0601 4.12879 79.1321 3.78788 79.1321 3.43182C79.1321 3.02273 79.0336 2.66856 78.8366 2.36932C78.6435 2.07008 78.3783 1.83901 78.0412 1.67614C77.7041 1.51326 77.3253 1.43182 76.9048 1.43182C76.4579 1.43182 76.0677 1.52462 75.7344 1.71023C75.4048 1.89205 75.1491 2.14773 74.9673 2.47727C74.7893 2.80682 74.7003 3.19318 74.7003 3.63636H73.3594C73.3594 2.95455 73.5166 2.35606 73.831 1.84091C74.1454 1.32576 74.5734 0.924242 75.1151 0.636363C75.6605 0.348484 76.2723 0.204545 76.9503 0.204545C77.6321 0.204545 78.2363 0.348484 78.7628 0.636363C79.2893 0.924242 79.7022 1.3125 80.0014 1.80114C80.3007 2.28977 80.4503 2.83333 80.4503 3.43182C80.4503 3.85985 80.3726 4.27841 80.2173 4.6875C80.0658 5.0928 79.8007 5.54545 79.4219 6.04545C79.0469 6.54167 78.526 7.14773 77.8594 7.86364L75.2457 10.6591V10.75H80.6548V12H73.3139ZM86.8651 12.1591C86.3878 12.1515 85.9105 12.0606 85.4332 11.8864C84.956 11.7121 84.5204 11.4186 84.1264 11.0057C83.7325 10.589 83.4162 10.0265 83.1776 9.31818C82.9389 8.60606 82.8196 7.71212 82.8196 6.63636C82.8196 5.60606 82.9162 4.69318 83.1094 3.89773C83.3026 3.09848 83.5829 2.42614 83.9503 1.88068C84.3177 1.33144 84.7609 0.914772 85.2798 0.630681C85.8026 0.34659 86.3916 0.204545 87.0469 0.204545C87.6984 0.204545 88.2779 0.335227 88.7855 0.596591C89.2969 0.854166 89.7135 1.21401 90.0355 1.67614C90.3575 2.13826 90.5658 2.67045 90.6605 3.27273H89.2741C89.1454 2.75 88.8954 2.31629 88.5241 1.97159C88.1529 1.62689 87.6605 1.45455 87.0469 1.45455C86.1454 1.45455 85.4351 1.84659 84.9162 2.63068C84.401 3.41477 84.1416 4.51515 84.1378 5.93182H84.2287C84.4408 5.60985 84.6927 5.33523 84.9844 5.10795C85.2798 4.87689 85.6056 4.69886 85.9616 4.57386C86.3177 4.44886 86.6946 4.38636 87.0923 4.38636C87.759 4.38636 88.3688 4.55303 88.9219 4.88636C89.4749 5.21591 89.9181 5.67235 90.2514 6.25568C90.5848 6.83523 90.7514 7.5 90.7514 8.25C90.7514 8.9697 90.5904 9.62879 90.2685 10.2273C89.9465 10.822 89.4938 11.2955 88.9105 11.6477C88.331 11.9962 87.6491 12.1667 86.8651 12.1591ZM86.8651 10.9091C87.3423 10.9091 87.7704 10.7898 88.1491 10.5511C88.5317 10.3125 88.8329 9.99242 89.0526 9.59091C89.276 9.18939 89.3878 8.74242 89.3878 8.25C89.3878 7.76894 89.2798 7.33144 89.0639 6.9375C88.8518 6.53977 88.5582 6.22348 88.1832 5.98864C87.812 5.75379 87.3878 5.63636 86.9105 5.63636C86.5507 5.63636 86.2154 5.70833 85.9048 5.85227C85.5942 5.99242 85.3215 6.18561 85.0866 6.43182C84.8556 6.67803 84.6738 6.96023 84.5412 7.27841C84.4086 7.5928 84.3423 7.92424 84.3423 8.27273C84.3423 8.73485 84.4503 9.16667 84.6662 9.56818C84.8859 9.9697 85.1851 10.2936 85.5639 10.5398C85.9465 10.786 86.3802 10.9091 86.8651 10.9091ZM97.4858 12V10.9773L101.327 6.77273C101.777 6.2803 102.149 5.85227 102.44 5.48864C102.732 5.12121 102.948 4.77652 103.088 4.45455C103.232 4.12879 103.304 3.78788 103.304 3.43182C103.304 3.02273 103.205 2.66856 103.009 2.36932C102.815 2.07008 102.55 1.83901 102.213 1.67614C101.876 1.51326 101.497 1.43182 101.077 1.43182C100.63 1.43182 100.24 1.52462 99.9062 1.71023C99.5767 1.89205 99.321 2.14773 99.1392 2.47727C98.9612 2.80682 98.8722 3.19318 98.8722 3.63636H97.5312C97.5312 2.95455 97.6884 2.35606 98.0028 1.84091C98.3172 1.32576 98.7453 0.924242 99.2869 0.636363C99.8324 0.348484 100.444 0.204545 101.122 0.204545C101.804 0.204545 102.408 0.348484 102.935 0.636363C103.461 0.924242 103.874 1.3125 104.173 1.80114C104.473 2.28977 104.622 2.83333 104.622 3.43182C104.622 3.85985 104.545 4.27841 104.389 4.6875C104.238 5.0928 103.973 5.54545 103.594 6.04545C103.219 6.54167 102.698 7.14773 102.031 7.86364L99.4176 10.6591V10.75H104.827V12H97.4858ZM107.173 12V10.9773L111.014 6.77273C111.465 6.2803 111.836 5.85227 112.128 5.48864C112.42 5.12121 112.635 4.77652 112.776 4.45455C112.92 4.12879 112.991 3.78788 112.991 3.43182C112.991 3.02273 112.893 2.66856 112.696 2.36932C112.503 2.07008 112.238 1.83901 111.901 1.67614C111.563 1.51326 111.185 1.43182 110.764 1.43182C110.317 1.43182 109.927 1.52462 109.594 1.71023C109.264 1.89205 109.009 2.14773 108.827 2.47727C108.649 2.80682 108.56 3.19318 108.56 3.63636H107.219C107.219 2.95455 107.376 2.35606 107.69 1.84091C108.005 1.32576 108.433 0.924242 108.974 0.636363C109.52 0.348484 110.132 0.204545 110.81 0.204545C111.491 0.204545 112.096 0.348484 112.622 0.636363C113.149 0.924242 113.562 1.3125 113.861 1.80114C114.16 2.28977 114.31 2.83333 114.31 3.43182C114.31 3.85985 114.232 4.27841 114.077 4.6875C113.925 5.0928 113.66 5.54545 113.281 6.04545C112.906 6.54167 112.385 7.14773 111.719 7.86364L109.105 10.6591V10.75H114.514V12H107.173ZM125.224 12.1591C124.747 12.1515 124.27 12.0606 123.793 11.8864C123.315 11.7121 122.88 11.4186 122.486 11.0057C122.092 10.589 121.776 10.0265 121.537 9.31818C121.298 8.60606 121.179 7.71212 121.179 6.63636C121.179 5.60606 121.276 4.69318 121.469 3.89773C121.662 3.09848 121.942 2.42614 122.31 1.88068C122.677 1.33144 123.12 0.914772 123.639 0.630681C124.162 0.34659 124.751 0.204545 125.406 0.204545C126.058 0.204545 126.637 0.335227 127.145 0.596591C127.656 0.854166 128.073 1.21401 128.395 1.67614C128.717 2.13826 128.925 2.67045 129.02 3.27273H127.634C127.505 2.75 127.255 2.31629 126.884 1.97159C126.512 1.62689 126.02 1.45455 125.406 1.45455C124.505 1.45455 123.795 1.84659 123.276 2.63068C122.76 3.41477 122.501 4.51515 122.497 5.93182H122.588C122.8 5.60985 123.052 5.33523 123.344 5.10795C123.639 4.87689 123.965 4.69886 124.321 4.57386C124.677 4.44886 125.054 4.38636 125.452 4.38636C126.118 4.38636 126.728 4.55303 127.281 4.88636C127.834 5.21591 128.277 5.67235 128.611 6.25568C128.944 6.83523 129.111 7.5 129.111 8.25C129.111 8.9697 128.95 9.62879 128.628 10.2273C128.306 10.822 127.853 11.2955 127.27 11.6477C126.69 11.9962 126.009 12.1667 125.224 12.1591ZM125.224 10.9091C125.702 10.9091 126.13 10.7898 126.509 10.5511C126.891 10.3125 127.192 9.99242 127.412 9.59091C127.635 9.18939 127.747 8.74242 127.747 8.25C127.747 7.76894 127.639 7.33144 127.423 6.9375C127.211 6.53977 126.918 6.22348 126.543 5.98864C126.171 5.75379 125.747 5.63636 125.27 5.63636C124.91 5.63636 124.575 5.70833 124.264 5.85227C123.954 5.99242 123.681 6.18561 123.446 6.43182C123.215 6.67803 123.033 6.96023 122.901 7.27841C122.768 7.5928 122.702 7.92424 122.702 8.27273C122.702 8.73485 122.81 9.16667 123.026 9.56818C123.245 9.9697 123.545 10.2936 123.923 10.5398C124.306 10.786 124.74 10.9091 125.224 10.9091ZM135.209 12.1591C134.732 12.1515 134.254 12.0606 133.777 11.8864C133.3 11.7121 132.864 11.4186 132.47 11.0057C132.076 10.589 131.76 10.0265 131.521 9.31818C131.283 8.60606 131.163 7.71212 131.163 6.63636C131.163 5.60606 131.26 4.69318 131.453 3.89773C131.646 3.09848 131.927 2.42614 132.294 1.88068C132.661 1.33144 133.105 0.914772 133.624 0.630681C134.146 0.34659 134.735 0.204545 135.391 0.204545C136.042 0.204545 136.622 0.335227 137.129 0.596591C137.641 0.854166 138.057 1.21401 138.379 1.67614C138.701 2.13826 138.91 2.67045 139.004 3.27273H137.618C137.489 2.75 137.239 2.31629 136.868 1.97159C136.497 1.62689 136.004 1.45455 135.391 1.45455C134.489 1.45455 133.779 1.84659 133.26 2.63068C132.745 3.41477 132.485 4.51515 132.482 5.93182H132.572C132.785 5.60985 133.036 5.33523 133.328 5.10795C133.624 4.87689 133.949 4.69886 134.305 4.57386C134.661 4.44886 135.038 4.38636 135.436 4.38636C136.103 4.38636 136.713 4.55303 137.266 4.88636C137.819 5.21591 138.262 5.67235 138.595 6.25568C138.929 6.83523 139.095 7.5 139.095 8.25C139.095 8.9697 138.934 9.62879 138.612 10.2273C138.29 10.822 137.838 11.2955 137.254 11.6477C136.675 11.9962 135.993 12.1667 135.209 12.1591ZM135.209 10.9091C135.686 10.9091 136.114 10.7898 136.493 10.5511C136.875 10.3125 137.177 9.99242 137.396 9.59091C137.62 9.18939 137.732 8.74242 137.732 8.25C137.732 7.76894 137.624 7.33144 137.408 6.9375C137.196 6.53977 136.902 6.22348 136.527 5.98864C136.156 5.75379 135.732 5.63636 135.254 5.63636C134.894 5.63636 134.559 5.70833 134.249 5.85227C133.938 5.99242 133.665 6.18561 133.43 6.43182C133.199 6.67803 133.018 6.96023 132.885 7.27841C132.752 7.5928 132.686 7.92424 132.686 8.27273C132.686 8.73485 132.794 9.16667 133.01 9.56818C133.23 9.9697 133.529 10.2936 133.908 10.5398C134.29 10.786 134.724 10.9091 135.209 10.9091Z" fill="white"/>
</svg>
