<svg width="169" height="30" viewBox="0 0 169 30" fill="none" xmlns="http://www.w3.org/2000/svg">
<path d="M10.1306 1.46867H24.8802V2.24718C23.253 2.27524 22.215 2.48565 21.7661 2.87841C21.3173 3.25714 21.0437 4.13384 20.9456 5.50851C24.1718 5.50851 26.6266 5.88023 28.3098 6.62367C29.9931 7.36711 31.4309 8.48929 32.6232 9.9902C33.8295 11.4911 34.4327 13.3146 34.4327 15.4608C34.4327 18.154 33.4368 20.5316 31.4449 22.5936C29.4531 24.6556 25.9533 25.6866 20.9456 25.6866C20.9456 26.6826 21.0578 27.412 21.2822 27.8749C21.5207 28.3378 21.8643 28.6604 22.3132 28.8428C22.7621 29.0111 23.6177 29.1373 24.8802 29.2215V30H10.1306V29.2215C11.87 29.1794 12.9641 28.9129 13.4129 28.4219C13.8618 27.917 14.0863 27.0052 14.0863 25.6866C10.7758 25.6866 8.1808 25.2237 6.30116 24.2979C4.43554 23.3721 3.01178 22.1378 2.02988 20.5948C1.062 19.0518 0.57806 17.3405 0.57806 15.4608C0.57806 13.4549 1.17422 11.6244 2.36653 9.96916C3.55884 8.29992 5.05975 7.14268 6.86926 6.49743C8.67877 5.83815 11.0844 5.50851 14.0863 5.50851C14.0863 4.23203 13.8268 3.37637 13.3077 2.94153C12.8028 2.50669 11.7437 2.27524 10.1306 2.24718V1.46867ZM20.9456 24.1296C22.3342 24.1296 23.4775 23.9192 24.3752 23.4984C25.2729 23.0635 26.0164 22.1728 26.6055 20.8262C27.1947 19.4656 27.4892 17.6 27.4892 15.2294C27.4892 13.3357 27.2157 11.7366 26.6687 10.4321C26.1356 9.12753 25.4343 8.24381 24.5646 7.78091C23.7089 7.31802 22.5026 7.07955 20.9456 7.06553V24.1296ZM14.0863 7.06553C12.2487 7.12164 10.9301 7.45127 10.1306 8.05444C9.33103 8.64359 8.69981 9.5764 8.23691 10.8529C7.77401 12.1293 7.54257 13.7635 7.54257 15.7554C7.54257 18.0418 7.82311 19.7882 8.3842 20.9945C8.94529 22.1868 9.68873 23.0074 10.6145 23.4563C11.5543 23.8912 12.7116 24.1156 14.0863 24.1296V7.06553ZM47.6674 17.0809V24.9923C47.6674 26.5353 47.7586 27.5102 47.9409 27.917C48.1373 28.3097 48.4739 28.6253 48.9509 28.8638C49.4418 29.1023 50.3325 29.2215 51.623 29.2215V30H37.1259V29.2215C38.4445 29.2215 39.3352 29.1023 39.7981 28.8638C40.275 28.6113 40.6047 28.2887 40.787 27.8959C40.9834 27.5032 41.0816 26.5353 41.0816 24.9923V6.47638C41.0816 4.93339 40.9834 3.96552 40.787 3.57275C40.6047 3.16597 40.275 2.84334 39.7981 2.60488C39.3212 2.36641 38.4305 2.24718 37.1259 2.24718V1.46867H49.561C53.657 1.46867 56.5957 2.19809 58.3771 3.65692C60.1586 5.11575 61.0493 6.93928 61.0493 9.12753C61.0493 10.9791 60.4742 12.5642 59.324 13.8827C58.1737 15.2013 56.5887 16.099 54.5688 16.576C53.2081 16.9126 50.9077 17.0809 47.6674 17.0809ZM47.6674 3.10986V15.4398C48.1303 15.4678 48.481 15.4818 48.7194 15.4818C50.4307 15.4818 51.7493 14.9769 52.6751 13.9669C53.6009 12.9429 54.0638 11.3649 54.0638 9.23273C54.0638 7.11462 53.6009 5.56462 52.6751 4.58271C51.7493 3.60081 50.3676 3.10986 48.53 3.10986H47.6674ZM74.1157 3.10986V14.7244H74.6838C76.4933 14.7244 77.8048 14.1563 78.6184 13.0201C79.432 11.8839 79.951 10.2076 80.1754 7.99132H80.975V22.9303H80.1754C80.0071 21.3031 79.6494 19.9706 79.1023 18.9325C78.5693 17.8945 77.9451 17.2002 77.2297 16.8495C76.5143 16.4848 75.4763 16.3024 74.1157 16.3024V24.34C74.1157 25.9111 74.1788 26.8719 74.305 27.2226C74.4453 27.5733 74.6978 27.8609 75.0625 28.0853C75.4272 28.3097 76.0163 28.4219 76.8299 28.4219H78.5342C81.1994 28.4219 83.3315 27.8047 84.9306 26.5703C86.5438 25.336 87.701 23.4563 88.4024 20.9314H89.1809L87.8974 30H63.2376V29.2215H64.1844C65.012 29.2215 65.6783 29.0742 66.1833 28.7796C66.548 28.5833 66.8285 28.2466 67.0249 27.7697C67.1792 27.433 67.2564 26.5493 67.2564 25.1185V6.35014C67.2564 5.05964 67.2213 4.2671 67.1512 3.97253C67.0109 3.48158 66.7514 3.10284 66.3726 2.83633C65.8396 2.44356 65.1102 2.24718 64.1844 2.24718H63.2376V1.46867H87.1189V9.90604H86.3193C85.9125 7.84404 85.3374 6.36417 84.594 5.46643C83.8646 4.56869 82.8266 3.90941 81.4799 3.48859C80.6944 3.2361 79.2216 3.10986 77.0614 3.10986H74.1157ZM91.9793 1.46867H117.144V9.21169H116.366C116.029 7.30399 115.594 5.95738 115.061 5.17185C114.542 4.38633 113.904 3.88135 113.146 3.65692C112.389 3.43248 110.888 3.32026 108.644 3.32026H102.836V25.4973C102.836 27.0964 103.068 28.1204 103.531 28.5692C104.008 29.0041 104.87 29.2215 106.119 29.2215H106.855V30H91.9793V29.2215H92.7788C94.0132 29.2215 94.8549 28.99 95.3037 28.5271C95.7526 28.0502 95.977 27.0403 95.977 25.4973V5.80308C95.977 4.51258 95.7877 3.60081 95.4089 3.06777C95.0442 2.52071 94.2026 2.24718 92.8841 2.24718H91.9793V1.46867ZM131.767 21.8783H121.689L120.49 24.6556C120.097 25.5814 119.9 26.3459 119.9 26.9491C119.9 27.7486 120.223 28.3378 120.868 28.7165C121.247 28.9409 122.18 29.1093 123.667 29.2215V30H114.177V29.2215C115.201 29.0672 116.043 28.6464 116.702 27.959C117.362 27.2577 118.175 25.8199 119.143 23.6457L129.348 0.879531H129.748L140.036 24.2769C141.018 26.4932 141.825 27.8889 142.456 28.464C142.933 28.8989 143.606 29.1514 144.476 29.2215V30H130.673V29.2215H131.241C132.35 29.2215 133.128 29.0672 133.577 28.7586C133.886 28.5342 134.04 28.2115 134.04 27.7907C134.04 27.5382 133.998 27.2787 133.914 27.0122C133.886 26.886 133.675 26.3599 133.282 25.4341L131.767 21.8783ZM131.052 20.3212L126.802 10.4952L122.425 20.3212H131.052ZM168.378 1.46867V9.19065H167.621C167.172 7.40919 166.674 6.13272 166.127 5.36122C165.58 4.5757 164.83 3.95149 163.876 3.48859C163.343 3.2361 162.41 3.10986 161.077 3.10986H158.952V25.1185C158.952 26.5774 159.029 27.4891 159.184 27.8538C159.352 28.2185 159.668 28.5412 160.13 28.8217C160.607 29.0882 161.253 29.2215 162.066 29.2215H163.013V30H148.074V29.2215H149.021C149.849 29.2215 150.515 29.0742 151.02 28.7796C151.384 28.5833 151.672 28.2466 151.882 27.7697C152.037 27.433 152.114 26.5493 152.114 25.1185V3.10986H150.052C148.13 3.10986 146.734 3.51665 145.865 4.33022C144.644 5.46643 143.873 7.08657 143.55 9.19065H142.751V1.46867H168.378Z" fill="white"/>
</svg>
